<?xml version="1.0" standalone="no"?>
<!DOCTYPE svg PUBLIC "-//W3C//DTD SVG 20010904//EN"
 "http://www.w3.org/TR/2001/REC-SVG-20010904/DTD/svg10.dtd">
<svg version="1.0" xmlns="http://www.w3.org/2000/svg"
 width="577.000000pt" height="433.000000pt" viewBox="0 0 577.000000 433.000000"
 preserveAspectRatio="xMidYMid meet">

<g transform="translate(0.000000,433.000000) scale(0.100000,-0.100000)"
fill="#000000" stroke="none">
<path d="M2742 3514 c-292 -97 -824 -414 -999 -596 -56 -57 -81 -117 -103
-248 -37 -210 -44 -683 -14 -925 11 -90 42 -223 62 -262 81 -158 696 -547
1056 -667 137 -46 204 -37 419 55 352 151 825 461 908 595 50 82 78 274 86
589 9 389 -23 700 -83 802 -38 66 -229 223 -393 323 -239 148 -488 274 -644
329 -111 39 -190 40 -295 5z m265 -69 c246 -78 778 -391 944 -555 71 -71 76
-79 92 -145 29 -126 41 -294 41 -580 0 -287 -12 -456 -42 -579 -14 -61 -24
-78 -74 -131 -106 -114 -422 -318 -713 -462 -309 -152 -370 -161 -575 -78
-225 90 -608 312 -785 453 -129 102 -162 154 -184 287 -42 247 -41 800 0 1025
22 119 36 145 118 222 158 149 587 407 851 513 158 64 207 68 327 30z"/>
<path d="M2755 3401 c-272 -96 -749 -378 -916 -541 -63 -62 -78 -100 -101
-255 -21 -142 -17 -781 5 -905 26 -150 34 -168 90 -225 210 -209 878 -575
1050 -575 158 0 743 310 1000 530 105 90 116 111 144 290 25 152 25 739 0 890
-27 169 -31 177 -110 255 -177 172 -662 457 -926 544 -86 28 -140 26 -236 -8z
m586 -523 c44 -10 54 -17 65 -44 18 -44 31 -269 15 -278 -6 -4 -80 -16 -164
-27 -177 -23 -231 -43 -253 -96 -11 -24 -12 -39 -4 -53 6 -10 66 -46 134 -78
133 -64 223 -121 273 -173 87 -91 113 -248 60 -363 -52 -112 -196 -230 -349
-283 -65 -23 -96 -27 -291 -35 -211 -8 -222 -8 -343 17 -68 14 -133 30 -143
37 -14 8 -25 46 -46 164 -15 85 -24 161 -21 170 4 12 13 14 29 9 112 -34 178
-46 277 -51 134 -7 195 4 212 40 24 53 -32 104 -160 147 -67 22 -198 104 -207
129 -3 8 -18 22 -33 31 -35 20 -64 80 -86 176 -21 95 -20 147 4 227 48 155
220 266 485 312 167 30 462 41 546 22z"/>
</g>
</svg>
